<svg width="24" height="25" viewBox="0 0 24 25" fill="none" xmlns="http://www.w3.org/2000/svg">
<path d="M3.064 7.79003C3.89601 6.13327 5.17237 4.74054 6.75043 3.7675C8.32849 2.79446 10.1461 2.27945 12 2.28003C14.695 2.28003 16.959 3.27003 18.69 4.88503L15.823 7.75303C14.786 6.76203 13.468 6.25703 12 6.25703C9.395 6.25703 7.19 8.01703 6.405 10.38C6.205 10.98 6.091 11.62 6.091 12.28C6.091 12.94 6.205 13.58 6.405 14.18C7.191 16.544 9.395 18.303 12 18.303C13.345 18.303 14.49 17.948 15.386 17.348C15.9054 17.006 16.3501 16.5623 16.6932 16.0435C17.0363 15.5248 17.2706 14.9419 17.382 14.33H12V10.462H21.418C21.536 11.116 21.6 11.798 21.6 12.507C21.6 15.553 20.51 18.117 18.618 19.857C16.964 21.385 14.7 22.28 12 22.28C10.6866 22.2806 9.38604 22.0223 8.17254 21.5199C6.95905 21.0175 5.85645 20.281 4.92776 19.3523C3.99907 18.4236 3.2625 17.321 2.76013 16.1075C2.25777 14.894 1.99948 13.5934 2 12.28C2 10.666 2.386 9.14003 3.064 7.79003Z" fill="black"/>
</svg>
