<svg xmlns="http://www.w3.org/2000/svg" fill="none" viewBox="0 0 16 16"><path fill="#95BF47" d="M13.318 3.12a.145.145 0 0 0-.137-.126c-.056 0-1.283-.092-1.283-.092s-.85-.85-.952-.94c-.092-.092-.275-.07-.344-.047-.01 0-.183.058-.48.15C9.83 1.227 9.327.47 8.443.47h-.08C8.122.15 7.8 0 7.537 0c-2.065 0-3.05 2.58-3.36 3.888-.804.253-1.377.425-1.446.447-.445.138-.457.15-.514.574C2.17 5.23 1 14.29 1 14.29L10.118 16l4.944-1.067c0-.01-1.732-11.733-1.744-11.813zm-3.704-.918c-.23.07-.494.15-.77.24v-.17c0-.506-.068-.92-.182-1.25.458.068.757.584.952 1.18zM8.088 1.135c.126.322.207.77.207 1.388v.092c-.505.16-1.044.32-1.595.493.31-1.18.895-1.755 1.388-1.973zM7.48.55a.46.46 0 0 1 .264.092c-.665.31-1.365 1.09-1.663 2.66-.434.14-.86.265-1.26.39C5.163 2.5 6 .552 7.48.552z"/><path fill="#5E8E3E" d="M13.18 2.982c-.057 0-1.285-.092-1.285-.092s-.848-.848-.952-.94a.184.184 0 0 0-.126-.057L10.13 16l4.943-1.067L13.33 3.12a.2.2 0 0 0-.15-.138z"/><path fill="#fff" d="M8.444 5.712l-.608 1.812s-.54-.287-1.193-.287c-.963 0-1.01.608-1.01.757 0 .826 2.157 1.147 2.157 3.085 0 1.524-.963 2.51-2.27 2.51-1.572 0-2.364-.975-2.364-.975l.425-1.387s.827.71 1.516.71a.612.612 0 0 0 .642-.62c0-1.078-1.766-1.124-1.766-2.9 0-1.493 1.067-2.938 3.235-2.938.826-.01 1.24.23 1.24.23z"/></svg>