<svg viewBox="0 0 39 42" xmlns="http://www.w3.org/2000/svg"><path d="M2.313 25.606a.978.978 0 0 1 .036.134c.05.248.105.5.168.758a1.007 1.007 0 0 1-.725 1.218.99.99 0 0 1-1.2-.735 20.41 20.41 0 0 1-.158-.7 1.027 1.027 0 0 1-.038-.142C-1.795 15.111 5.366 2.5 15.646.394 26.15-1.755 36.38 5.102 38.572 15.727c.017.047.03.096.04.146.251 1.265.42 4.872.384 6.753a.998.998 0 0 1-1.01.987 1 1 0 0 1-.972-1.025c.031-1.68-.119-4.979-.322-6.189a1.028 1.028 0 0 1-.034-.127C34.747 6.652 25.516.428 16.04 2.367 6.932 4.232.414 15.647 2.313 25.606zm13.155 15.427a.981.981 0 0 1-1.399.092 1.017 1.017 0 0 1-.09-1.42c3.868-4.47 5.851-13.182 4.552-19.723a1.006 1.006 0 0 1 .776-1.185.992.992 0 0 1 1.168.787c1.416 7.134-.713 16.488-5.007 21.449zm5.44.529a.982.982 0 0 1-1.379.262 1.016 1.016 0 0 1-.258-1.399c3.554-5.271 5.169-14.446 3.793-21.37a1.034 1.034 0 0 1-.015-.099c-.44-1.947-2.33-3.195-4.27-2.797-1.924.394-3.186 2.257-2.878 4.206.017.047.03.096.04.147 1.249 6.28-.98 14.72-5.117 18.648a.981.981 0 0 1-1.401-.048 1.017 1.017 0 0 1 .046-1.422c3.572-3.391 5.609-11.004 4.56-16.618a1.025 1.025 0 0 1-.045-.16c-.615-3.091 1.356-6.102 4.402-6.726 3.046-.624 6.013 1.377 6.628 4.47.007.037.013.075.016.113 1.439 7.427-.276 17.086-4.123 22.793zm6.118-1.368a.985.985 0 0 1-1.326.464 1.013 1.013 0 0 1-.457-1.345c2.68-5.582 3.673-14.547 2.354-21.186-.94-4.569-5.278-7.477-9.732-6.565-4.427.905-7.309 5.246-6.494 9.738.015.045.028.091.038.14.984 4.955-.969 12.018-4.364 14.84a.981.981 0 0 1-1.395-.141 1.017 1.017 0 0 1 .139-1.416c2.75-2.287 4.486-8.476 3.703-12.743a1.029 1.029 0 0 1-.038-.14c-1.118-5.631 2.472-11.117 8.019-12.25 5.547-1.137 10.95 2.507 12.07 8.138 1.394 7.12.348 16.496-2.517 22.466zm6.56-4.481a.99.99 0 0 1-1.214.713 1.008 1.008 0 0 1-.702-1.232c1.3-4.946 1.51-12.648.472-17.938-1.42-7.137-8.215-11.719-15.19-10.291-6.62 1.354-11.517 10.307-10.104 17.74.01.035.02.07.027.107a8.125 8.125 0 0 1-2.656 7.749.981.981 0 0 1-1.397-.118 1.017 1.017 0 0 1 .116-1.418 6.095 6.095 0 0 0 2.013-5.712 1.035 1.035 0 0 1-.026-.101C3.24 16.733 8.758 6.588 16.56 4.992c8.03-1.643 15.851 3.614 17.5 11.75 1.125 5.653.909 13.706-.474 18.97z" fill="#DAC2E5"/></svg>